<?xml version="1.0" encoding="utf-8"?>
<!-- Generator: Adobe Illustrator 15.0.0, SVG Export Plug-In . SVG Version: 6.00 Build 0)  -->
<!DOCTYPE svg PUBLIC "-//W3C//DTD SVG 1.1//EN" "http://www.w3.org/Graphics/SVG/1.1/DTD/svg11.dtd">
<svg version="1.1"  xmlns="http://www.w3.org/2000/svg" xmlns:xlink="http://www.w3.org/1999/xlink" x="0px" y="0px"
	 width="48px" height="48px" viewBox="0 0 48 48" enable-background="new 0 0 48 48" xml:space="preserve">
<polygon fill="#90CAF9" points="40,45 8,45 8,3 30,3 40,13 "/>
<polygon fill="#E1F5FE" points="38.5,14 29,14 29,4.5 "/>
<g>
	<rect x="14" y="9" fill="#1565C0" width="11" height="5"/>
	<path fill="#1565C0" d="M34,26H18v-2h16V26z M34,20H18v2h16V20z M34,32H18v2h16V32z M34,36H18v2h16V36z M34,28H18v2h16V28z M14,22
		h2v-2h-2V22z M14,26h2v-2h-2V26z M14,38h2v-2h-2V38z M14,30h2v-2h-2V30z M14,34h2v-2h-2V34z"/>
</g>
</svg>
