<?xml version="1.0" encoding="utf-8"?>
<!-- Generator: Adobe Illustrator 19.1.1, SVG Export Plug-In . SVG Version: 6.00 Build 0)  -->
<svg version="1.1"  xmlns="http://www.w3.org/2000/svg" xmlns:xlink="http://www.w3.org/1999/xlink" x="0px" y="0px"
	 viewBox="0 0 48 48" enable-background="new 0 0 48 48" xml:space="preserve">
<path fill="#BBDEFB" d="M40,42H8c-2.2,0-4-1.8-4-4V10c0-2.2,1.8-4,4-4h32c2.2,0,4,1.8,4,4v28C44,40.2,42.2,42,40,42z"/>
<path fill="#673AB7" d="M27.8,32L27.8,32L24,32.8L20.3,32c0,0-8.3,1.5-8.3,10h24C36,33.6,27.8,32,27.8,32"/>
<path fill="#311B92" d="M24,38c3.1,0,5.6-2.3,5.9-5.3c-0.9-0.4-1.6-0.6-2-0.7c0,2.2-1.8,3.9-4,3.9c-2.2,0-4-1.8-4-3.9
	c-0.4,0.1-1.1,0.3-2,0.7C18.4,35.7,20.9,38,24,38z"/>
<path fill="#FFA726" d="M32,23.5c0,0.8-0.7,1.5-1.5,1.5c-0.8,0-1.5-0.7-1.5-1.5s0.7-1.5,1.5-1.5C31.3,22,32,22.7,32,23.5 M19,23.5
	c0-0.8-0.7-1.5-1.5-1.5S16,22.7,16,23.5s0.7,1.5,1.5,1.5S19,24.3,19,23.5"/>
<path fill="#FF9800" d="M24,36c-4,0-4-4-4-4v-4h8v4C28,32,28,36,24,36z"/>
<path fill="#FFB74D" d="M31,19.7c0-5.9-14-3.8-14,0v4.4c0,3.8,3.1,6.9,7,6.9c3.9,0,7-3.1,7-6.9V19.7z"/>
<path fill="#424242" d="M24,12c-4.9,0-8,4.3-8,8.2V22l2,2v-4l9.2-3l2.8,3v4l2-2v-0.8c0-3.2-0.8-6.8-4.8-7.6L26.4,12H24z"/>
<path fill="#784719" d="M26,23c0-0.6,0.4-1,1-1s1,0.4,1,1s-0.4,1-1,1S26,23.6,26,23 M20,23c0,0.6,0.4,1,1,1s1-0.4,1-1s-0.4-1-1-1
	S20,22.4,20,23"/>
</svg>
