<?xml version="1.0" encoding="utf-8"?>
<!-- Generator: Adobe Illustrator 15.0.0, SVG Export Plug-In . SVG Version: 6.00 Build 0)  -->
<!DOCTYPE svg PUBLIC "-//W3C//DTD SVG 1.1//EN" "http://www.w3.org/Graphics/SVG/1.1/DTD/svg11.dtd">
<svg version="1.1"  xmlns="http://www.w3.org/2000/svg" xmlns:xlink="http://www.w3.org/1999/xlink" x="0px" y="0px"
	 width="48px" height="48px" viewBox="0 0 48 48" enable-background="new 0 0 48 48" xml:space="preserve">
<path fill="#BBDEFB" d="M42,5H6C3.791,5,2,6.791,2,9v30c0,2.209,1.791,4,4,4h36c2.209,0,4-1.791,4-4V9C46,6.791,44.209,5,42,5L42,5z
	"/>
<rect x="6" y="9" fill="#1E88E5" width="36" height="30"/>
<path fill="#FFF59D" d="M13,17.5c0,1.938,1.565,3.5,3.498,3.5C18.434,21,20,19.438,20,17.5c0-1.935-1.566-3.5-3.502-3.5
	C14.565,14,13,15.565,13,17.5"/>
<g>
	<path fill="#E3F2FD" d="M24,26c0-2.761,2.236-5,5.002-5C31.765,21,34,23.239,34,26c0,2.762-2.235,5-4.998,5
		C26.236,31,24,28.762,24,26z"/>
	<path fill="#E3F2FD" d="M19,27c0-2.21,1.789-4,3.999-4C25.211,23,27,24.79,27,27s-1.789,4-4.001,4C20.789,31,19,29.21,19,27z"/>
	<path fill="#E3F2FD" d="M26.564,34c-1.956,0,3.942-7,5.898-7C34.414,27,36,28.568,36,30.502S34.414,34,32.463,34
		C30.507,34,28.924,34,26.564,34z"/>
	<path fill="#E3F2FD" d="M13.831,30.502c0-1.934,1.585-3.502,3.54-3.502c5.896,0,7.853,7,5.896,7c-2.36,0-3.942,0-5.896,0
		C15.416,34,13.831,32.436,13.831,30.502z"/>
	<polygon fill="#E3F2FD" points="31.456,34 17.32,34 17.32,29.34 31.456,27.008 	"/>
</g>
</svg>
